<svg width="30" height="31" viewBox="0 0 30 31" fill="none" xmlns="http://www.w3.org/2000/svg">
<path d="M18.5216 15.746L29.2612 5.03136C29.7315 4.56105 29.9957 3.92318 29.9957 3.25807C29.9957 2.59296 29.7315 1.95509 29.2612 1.48478C28.7909 1.01448 28.153 0.750263 27.4879 0.750263C26.8228 0.750263 26.185 1.01448 25.7146 1.48478L15 12.2244L4.28535 1.48478C3.81505 1.01448 3.17718 0.750263 2.51207 0.750263C1.84696 0.750263 1.20909 1.01448 0.738782 1.48478C0.268477 1.95509 0.00426239 2.59296 0.00426238 3.25807C0.00426238 3.92318 0.268477 4.56105 0.738782 5.03136L11.4784 15.746L0.738782 26.4606C0.504687 26.6928 0.318881 26.9691 0.192082 27.2734C0.0652831 27.5778 0 27.9042 0 28.2339C0 28.5636 0.0652831 28.8901 0.192082 29.1944C0.318881 29.4988 0.504687 29.775 0.738782 30.0072C0.970965 30.2413 1.2472 30.4271 1.55155 30.5539C1.85591 30.6807 2.18236 30.746 2.51207 30.746C2.84178 30.746 3.16823 30.6807 3.47258 30.5539C3.77694 30.4271 4.05317 30.2413 4.28535 30.0072L15 19.2676L25.7146 30.0072C25.9468 30.2413 26.2231 30.4271 26.5274 30.5539C26.8318 30.6807 27.1582 30.746 27.4879 30.746C27.8176 30.746 28.1441 30.6807 28.4484 30.5539C28.7528 30.4271 29.029 30.2413 29.2612 30.0072C29.4953 29.775 29.6811 29.4988 29.8079 29.1944C29.9347 28.8901 30 28.5636 30 28.2339C30 27.9042 29.9347 27.5778 29.8079 27.2734C29.6811 26.9691 29.4953 26.6928 29.2612 26.4606L18.5216 15.746Z" fill="black"/>
</svg>
