<svg width="16" height="50" viewBox="0 0 16 50" fill="none" xmlns="http://www.w3.org/2000/svg">
<path fill-rule="evenodd" clip-rule="evenodd" d="M14.622 0.202186C15.0769 0.430645 15.4226 0.830147 15.5833 1.3131C15.7441 1.79605 15.7067 2.32303 15.4795 2.77851L4.37827 24.9925L15.4834 47.2027C15.5988 47.4287 15.6684 47.6753 15.688 47.9282C15.7077 48.1812 15.6771 48.4356 15.5981 48.6767C15.519 48.9178 15.3929 49.1408 15.2272 49.333C15.0615 49.5251 14.8594 49.6826 14.6326 49.7962C14.4057 49.9099 14.1586 49.9776 13.9055 49.9953C13.6524 50.013 13.3983 49.9805 13.1578 49.8995C12.9173 49.8186 12.6952 49.6908 12.5044 49.5236C12.3135 49.3564 12.1576 49.1531 12.0457 48.9254L0.509948 25.8539C0.375973 25.5865 0.306213 25.2916 0.306213 24.9925C0.306213 24.6935 0.375973 24.3986 0.509948 24.1312L12.0457 1.05968C12.2742 0.60483 12.6737 0.259136 13.1566 0.0983925C13.6396 -0.0623509 14.1666 -0.0250252 14.622 0.202186Z" fill="#C4C4C4"/>
</svg>
