<svg width="134" height="44" viewBox="0 0 134 44" fill="none" xmlns="http://www.w3.org/2000/svg">
<path d="M12.98 39.048C14.26 38.216 15.348 37.32 16.116 36.04C17.204 35.016 17.204 34.76 18.292 32.648C19.316 30.472 20.212 28.04 20.724 26.504C20.916 25.928 21.108 25.864 20.468 25.224C20.148 24.904 19.892 25.032 19.7 25.608C19.636 25.8 19.444 26.056 19.316 26.312C18.868 27.272 18.548 27.976 18.1 28.808C17.908 29.512 16.564 32.52 16.436 32.904C16.116 33.736 14.836 34.76 14.26 35.592C13.3 36.68 12.02 37.768 10.74 36.36C10.292 36.104 10.164 35.72 9.972 35.272C9.716 34.824 9.46 34.44 9.46 33.992C9.14 32.136 8.82 33.224 9.012 31.368C9.076 30.536 9.204 29.64 8.884 28.616C8.756 27.72 9.268 27.144 10.164 25.16C10.74 23.816 11.124 22.408 11.444 21C11.892 19.976 12.148 18.824 12.276 17.544C12.852 15.496 13.236 13.512 13.428 11.528C13.62 10.376 13.812 9.352 13.748 8.2C13.812 6.92 14.132 5.576 13.748 4.296C13.62 3.848 13.364 3.208 13.108 2.696C12.98 1.736 12.148 0.967999 11.06 0.839996C10.036 0.903999 9.204 0.903999 8.18 1.48C7.988 1.736 7.54 1.928 7.284 1.928C6.388 1.992 5.684 2.248 4.852 2.376C4.468 2.568 4.148 2.888 4.276 3.336C4.34 3.848 4.212 4.296 3.892 4.744C3.508 5.896 3.316 6.856 2.932 7.88C2.548 9.224 2.164 10.504 1.908 11.784L1.652 13.576C1.652 13.704 1.652 13.896 1.524 14.024C1.396 14.344 1.588 14.6 1.588 14.728C1.46 15.304 1.268 15.816 1.332 16.52L1.268 16.648C0.948 19.4 0.82 18.824 1.012 19.784C0.82 20.36 0.692 22.92 0.884 23.624C0.756 23.944 0.756 24.2 0.756 24.584L0.82 26.376C0.884 28.296 1.46 32.328 1.78 32.904C2.356 34.248 2.804 35.848 2.996 36.04C4.02 37.576 4.084 37.512 5.684 38.6C7.732 39.944 10.804 39.88 12.98 39.048ZM8.948 22.472C8.692 22.664 8.756 21.128 8.756 20.936C8.628 20.808 8.948 19.08 8.948 18.312L8.756 14.088C8.692 11.08 9.332 8.136 9.908 5.064H10.036C9.908 4.424 10.868 3.912 11.316 4.488C13.108 6.92 12.212 9.736 11.572 12.424C11.188 13.832 11.124 15.432 11.06 16.84C10.868 18.568 10.42 19.08 9.908 20.744C9.78 21.576 9.524 21.896 8.948 22.472ZM27.1415 38.792C27.8455 38.792 28.3575 38.472 28.6775 37.896C29.1255 37.128 29.8295 36.488 30.2775 35.72C31.2375 34.44 32.0055 33.16 31.8775 31.496C31.8775 31.176 31.8775 30.856 32.0055 30.536C32.1975 29.64 32.1975 29.256 32.3255 28.424C32.3895 27.656 32.3895 27.656 33.1575 27.656C34.7575 27.656 35.6535 27.08 36.4215 26.888C37.1255 26.696 37.7655 26.44 38.2775 25.992C38.4695 25.864 38.8535 25.48 38.8535 24.776C38.8535 24.328 38.7255 24.136 38.0855 24.584C36.9975 25.352 36.6135 25.48 35.9735 25.672C35.2695 25.864 34.3095 25.928 33.0935 25.928C32.3895 25.928 32.3255 25.352 32.1975 24.648C32.0055 23.88 31.7495 23.176 31.5575 22.472C31.2375 21.768 30.4055 21.448 29.8935 20.936C29.8935 20.872 29.8295 20.808 29.8295 20.808C28.4855 19.656 27.0135 19.848 25.5415 20.168C25.0935 20.296 24.5175 20.488 24.1335 20.808C24.0695 20.936 23.8135 21 23.6215 20.936C22.8535 20.552 21.9575 20.744 21.1895 20.296C20.7415 20.04 20.3575 19.976 19.9095 19.784C19.5255 19.592 19.3335 19.72 19.1415 19.976C18.9495 20.232 18.8215 20.424 18.8215 20.744C18.8855 21.128 18.7575 21.512 18.6295 21.96C18.4375 22.728 18.2455 23.496 17.9895 24.264C17.2855 27.016 17.0935 29.832 17.9895 32.584C18.5655 34.376 19.3335 35.912 20.9975 37C22.8535 38.28 24.9655 38.728 27.1415 38.792ZM28.8695 25.48C27.9095 25.16 27.0775 24.264 26.9495 23.496C26.8855 22.92 26.8855 22.536 27.3975 22.216C28.1015 21.96 28.6135 22.088 29.1255 22.28C30.3415 22.728 30.9175 23.88 30.9815 24.84C31.0455 25.992 30.9815 26.12 28.8695 25.48ZM27.0775 36.168C26.2455 36.936 25.2855 36.744 24.9015 35.784C24.7735 35.528 24.7735 35.272 24.6455 34.952C24.5175 33.992 24.5815 32.968 25.0295 32.008C25.4135 30.984 25.4775 30.024 25.6695 29C25.7975 28.104 26.1815 27.272 26.1815 26.376C26.1815 25.992 26.4375 25.864 26.8855 26.12C27.6535 26.568 28.4855 27.016 29.4455 27.144L29.7015 27.208C31.0455 27.528 31.1095 27.528 30.8535 28.68C30.4055 30.856 29.6375 33.032 28.2935 35.016C27.9735 35.464 27.5255 35.848 27.0775 36.168ZM45.8915 38.792C46.5955 38.792 47.1075 38.472 47.4275 37.896C47.8755 37.128 48.5795 36.488 49.0275 35.72C49.9875 34.44 50.7555 33.16 50.6275 31.496C50.6275 31.176 50.6275 30.856 50.7555 30.536C50.9475 29.64 50.9475 29.256 51.0755 28.424C51.1395 27.656 51.1395 27.656 51.9075 27.656C53.5075 27.656 54.4035 27.08 55.1715 26.888C55.8755 26.696 56.5155 26.44 57.0275 25.992C57.2195 25.864 57.6035 25.48 57.6035 24.776C57.6035 24.328 57.4755 24.136 56.8355 24.584C55.7475 25.352 55.3635 25.48 54.7235 25.672C54.0195 25.864 53.0595 25.928 51.8435 25.928C51.1395 25.928 51.0755 25.352 50.9475 24.648C50.7555 23.88 50.4995 23.176 50.3075 22.472C49.9875 21.768 49.1555 21.448 48.6435 20.936C48.6435 20.872 48.5795 20.808 48.5795 20.808C47.2355 19.656 45.7635 19.848 44.2915 20.168C43.8435 20.296 43.2675 20.488 42.8835 20.808C42.8195 20.936 42.5635 21 42.3715 20.936C41.6035 20.552 40.7075 20.744 39.9395 20.296C39.4915 20.04 39.1075 19.976 38.6595 19.784C38.2755 19.592 38.0835 19.72 37.8915 19.976C37.6995 20.232 37.5715 20.424 37.5715 20.744C37.6355 21.128 37.5075 21.512 37.3795 21.96C37.1875 22.728 36.9955 23.496 36.7395 24.264C36.0355 27.016 35.8435 29.832 36.7395 32.584C37.3155 34.376 38.0835 35.912 39.7475 37C41.6035 38.28 43.7155 38.728 45.8915 38.792ZM47.6195 25.48C46.6595 25.16 45.8275 24.264 45.6995 23.496C45.6355 22.92 45.6355 22.536 46.1475 22.216C46.8515 21.96 47.3635 22.088 47.8755 22.28C49.0915 22.728 49.6675 23.88 49.7315 24.84C49.7955 25.992 49.7315 26.12 47.6195 25.48ZM45.8275 36.168C44.9955 36.936 44.0355 36.744 43.6515 35.784C43.5235 35.528 43.5235 35.272 43.3955 34.952C43.2675 33.992 43.3315 32.968 43.7795 32.008C44.1635 30.984 44.2275 30.024 44.4195 29C44.5475 28.104 44.9315 27.272 44.9315 26.376C44.9315 25.992 45.1875 25.864 45.6355 26.12C46.4035 26.568 47.2355 27.016 48.1955 27.144L48.4515 27.208C49.7955 27.528 49.8595 27.528 49.6035 28.68C49.1555 30.856 48.3875 33.032 47.0435 35.016C46.7235 35.464 46.2755 35.848 45.8275 36.168ZM61.3135 39.752C61.9535 39.752 62.0175 39.496 62.0175 38.984C62.0175 38.6 62.0175 38.408 62.0815 38.216C62.5295 37.768 62.7855 37.256 62.6575 36.68C62.5295 36.424 62.7855 36.168 62.9135 35.912C63.3615 35.336 63.3615 34.696 63.5535 34.056C63.8095 33.288 64.0655 32.392 64.4495 31.688C64.7055 31.048 65.1535 30.216 65.4095 29.512C65.5375 29.128 65.6015 28.936 65.9855 28.68C66.0495 29.256 66.0495 29.768 66.0495 30.216C66.0495 31.24 66.2415 32.2 66.4975 33.096C67.0735 34.824 68.1615 36.168 69.7615 36.872C70.2735 37.064 70.7215 37.448 71.3615 37.32C72.2575 37.064 72.8335 36.68 73.1535 35.912C74.1775 34.056 75.2655 32.456 75.9055 30.408L76.2895 29.768C76.7375 29.512 77.1855 29.512 77.2495 30.024C77.4415 30.6 77.6335 31.112 77.8895 31.752C78.4015 33.032 78.8495 33.672 79.7455 34.504C80.7695 35.4 81.9855 35.336 83.2015 34.888C84.4175 34.312 84.6095 33.736 85.5055 32.776C86.0175 32.072 86.2095 31.496 86.7215 30.6C87.6175 29 87.8735 28.04 88.7695 26.248C88.8975 25.992 89.0255 25.544 88.6415 25.288C88.3855 25.224 88.3215 25.16 88.0655 25.416C87.8735 25.48 87.6175 25.736 87.4895 25.992C86.7215 27.4 86.2095 28.36 85.5695 29.768C84.9295 31.24 84.1615 32.136 82.8815 33.032C82.1775 33.48 81.1535 33.608 80.9615 32.84C80.5775 32.136 80.3855 31.304 80.2575 30.472C80.1935 29.704 80.2575 28.936 80.1295 28.232C79.9375 27.272 79.2975 26.632 78.2735 26.632C77.3135 26.504 76.2255 26.696 75.3295 27.272C74.8815 27.592 74.2415 27.976 73.9855 28.488C73.9215 28.488 73.7935 28.808 73.4735 28.616C73.6015 27.976 73.6015 27.144 73.7935 26.44C74.1775 25.032 73.7935 24.136 72.6415 23.368C71.7455 22.664 70.7215 22.408 69.7615 22.152C68.4175 21.832 67.1375 22.472 66.2415 23.496C65.6015 24.392 64.6415 25.032 64.0015 26.056C63.8735 25.096 64.0655 24.2 63.8095 23.56C63.8095 23.368 63.8095 23.112 63.8735 22.92C64.0015 21.96 63.6175 21.128 62.7855 20.616C62.0175 20.296 61.3135 19.976 60.6095 19.592C59.9695 19.4 59.3935 19.4 58.8815 19.592C58.7535 19.784 58.4975 19.848 58.4335 20.04C57.9855 20.872 57.5375 21.512 57.3455 22.408C57.1535 23.496 56.8975 24.648 56.4495 25.608C56.2575 26.248 56.0015 27.08 55.8735 27.72C55.6815 29.256 55.2335 30.792 55.3615 32.328C55.4255 33.544 55.6815 34.632 56.0015 35.784C56.2575 36.552 56.5135 37.256 57.2175 37.768C58.0495 38.344 58.9455 38.984 59.8415 39.432C60.2895 39.624 60.8655 39.752 61.3135 39.752ZM90.6765 17.736H91.1885C92.4045 17.672 93.4925 16.712 93.7485 15.112C94.1325 13.768 94.3245 12.296 94.3885 10.888C94.3885 10.504 94.7085 9.992 94.5165 9.544C94.3245 9.48 94.1965 9.16 94.1325 8.904C93.9405 8.52 91.8925 8.264 90.6765 7.688C90.1645 7.432 89.7805 7.176 89.3325 7.56C88.6285 8.136 88.0525 8.648 87.5405 9.608C86.9645 10.568 86.5805 11.72 86.4525 12.808C86.5805 12.936 86.5805 13.192 86.6445 13.448C86.9005 13.96 86.9645 14.536 87.2845 15.24C88.0525 17.096 88.7565 17.928 90.6765 17.736ZM93.5565 39.24C94.5805 39.24 95.6045 38.6 96.0525 38.024C96.3085 37.704 96.6285 37 96.8845 36.744C97.5245 35.976 98.1005 35.4 98.6125 34.568C99.2525 33.736 102.26 27.272 102.581 26.248C102.581 26.056 102.708 25.928 102.645 25.736C102.645 25.608 101.812 24.904 101.557 25.544C101.109 26.76 97.9085 33.224 97.2045 34.312C96.4365 35.464 95.6685 36.36 94.5805 37.256C94.0685 37.448 93.8125 37.512 93.5565 37C93.3005 36.232 93.2365 35.464 93.2365 34.696C93.3005 33.544 93.3005 32.392 93.4285 31.304C93.6845 29.512 93.7485 27.656 93.8125 25.928C93.9405 25.224 94.0045 24.712 94.0045 24.072C94.1325 23.88 94.1325 23.688 94.1325 23.432C94.0685 23.176 93.9405 22.92 93.6845 22.856C93.4285 22.6 93.0445 22.472 92.5965 22.344C91.4445 21.896 90.1005 21.576 88.9485 21.192C88.3085 20.936 87.6685 21.32 87.2205 21.512C86.7085 21.768 86.7725 22.152 86.7725 22.792C86.5805 23.688 86.5165 24.52 86.3245 25.48C86.0685 26.056 86.1325 26.696 86.1325 27.336C86.1325 27.784 85.9405 28.36 85.8125 28.808C85.8765 29.832 85.8765 30.792 86.0685 31.944C86.0045 32.584 86.1325 33.224 86.1325 33.864C86.1325 34.376 86.1965 34.888 86.4525 35.272C87.1565 36.232 87.7325 37.064 88.6285 37.768C89.0765 38.024 89.5245 38.28 89.9085 38.6C91.0605 39.304 92.2125 39.496 93.5565 39.24ZM106.013 38.472C106.845 38.856 107.677 38.408 108.445 38.408C108.509 38.344 108.637 38.344 108.765 38.344C109.341 38.152 109.981 38.152 110.429 38.088C113.117 37.192 117.213 32.776 118.557 29.128C118.557 28.936 118.621 28.488 119.581 26.696C120.029 25.864 119.709 25.864 119.389 25.544C118.813 24.968 118.621 25.352 118.429 25.992C118.365 26.312 118.109 26.76 117.917 27.016C117.469 27.592 117.085 28.36 116.893 29C114.717 33.608 112.477 35.08 110.237 35.976C109.661 36.232 109.277 36.232 108.829 35.784C108.445 35.016 108.061 34.248 107.933 33.416C107.869 33.032 108.445 32.008 108.573 31.752C109.789 30.152 110.429 28.296 111.645 26.696C111.901 26.376 112.093 25.864 112.157 25.288C112.413 24.2 112.477 23.176 112.733 22.024C113.117 20.872 112.669 19.976 112.221 19.08C111.773 18.376 111.261 18.12 110.557 18.12C110.493 18.12 110.365 18.184 110.173 18.12C110.045 18.184 109.853 18.056 109.661 18.056C106.781 17.736 105.565 17.032 102.685 21.448C101.853 22.792 101.021 23.816 100.573 25.16C99.805 27.4 99.357 29.576 99.869 31.944C100.189 34.376 101.277 36.104 102.877 37.32C104.029 38.152 105.181 38.216 106.013 38.472ZM107.869 29.256C107.869 28.872 107.357 26.696 107.421 26.376C107.421 26.248 107.549 26.12 107.549 25.928C107.549 24.968 107.869 24.2 108.253 23.432C108.445 22.792 108.701 22.472 109.021 21.96C108.893 21.64 110.173 20.872 110.365 21.832C110.813 24.072 109.661 26.376 108.893 28.424C108.637 29.064 107.869 29.896 107.869 29.256ZM123.071 43.272C123.327 43.4 123.711 43.464 123.903 43.272C124.671 42.76 125.503 42.248 125.759 41.224C125.887 40.904 126.079 40.52 126.143 40.264C126.463 39.24 126.783 38.28 126.591 37.32C126.463 35.848 126.399 34.952 126.015 33.608C126.015 33.48 126.143 32.904 126.015 32.84C126.079 32.2 126.271 31.176 126.783 30.664C127.807 29.64 128.063 29.256 129.215 28.488C130.623 27.528 131.583 26.44 133.183 25.096C133.567 24.776 133.567 24.52 133.503 24.2C133.439 23.88 133.247 23.496 132.991 23.688C130.559 25.8 129.471 26.568 128.767 27.08C126.655 28.616 126.527 29.064 125.759 29.512C125.183 29.832 124.799 29.32 124.799 29C124.671 28.744 124.607 28.552 124.479 28.424C124.351 28.104 124.223 27.848 124.095 27.464C123.583 26.12 124.159 23.816 124.479 22.856C124.991 21.32 125.823 19.464 125.503 18.312C125.375 17.672 124.671 17.608 123.583 17.096C122.175 16.392 120.895 16.072 119.487 16.52C118.207 16.904 117.695 17.096 116.799 17.928C116.607 18.12 116.415 18.248 116.415 18.504C116.479 20.296 115.775 21.96 116.287 23.752C116.479 24.392 116.479 25.096 116.479 25.672C117.055 27.272 117.951 28.744 119.039 30.024C119.295 30.024 119.487 30.216 119.807 30.408L121.087 31.56C121.535 31.944 122.047 32.008 122.559 32.2C123.071 32.712 123.071 33.032 122.687 33.672C122.495 34.12 122.239 34.504 122.111 34.952C121.535 36.872 120.831 38.728 120.831 40.776C120.703 40.968 120.703 41.288 120.703 41.608C120.767 41.8 120.959 42.12 121.151 42.248C121.855 42.824 122.495 42.888 123.071 43.272ZM122.879 41.48C122.303 40.968 122.111 40.456 122.175 39.688C122.239 38.088 122.879 36.552 123.647 35.208C123.711 35.144 123.903 34.76 124.095 35.08C124.543 36.872 124.543 38.792 124.159 40.712L123.903 41.224C123.647 41.8 123.327 41.8 122.879 41.48Z" fill="#333333"/>
</svg>
