<svg width="16" height="50" viewBox="0 0 16 50" fill="none" xmlns="http://www.w3.org/2000/svg">
<path fill-rule="evenodd" clip-rule="evenodd" d="M1.37436 0.203716C1.83021 -0.0247015 2.35812 -0.0626859 2.84198 0.0981186C3.32583 0.258923 3.726 0.605345 3.95444 1.06118L15.4898 24.132C15.6238 24.3993 15.6936 24.6943 15.6936 24.9933C15.6936 25.2923 15.6238 25.5873 15.4898 25.8546L3.95444 48.9254C3.84253 49.1531 3.68665 49.3564 3.49579 49.5236C3.30493 49.6908 3.08286 49.8186 2.84239 49.8995C2.60193 49.9805 2.34781 50.013 2.0947 49.9953C1.8416 49.9776 1.5945 49.9099 1.36766 49.7963C1.14082 49.6826 0.938722 49.5251 0.773022 49.333C0.607322 49.1408 0.481297 48.9178 0.402209 48.6767C0.323122 48.4356 0.292538 48.1813 0.312221 47.9283C0.331904 47.6753 0.401464 47.4288 0.516891 47.2028L11.6178 24.9933L0.516891 2.7838C0.288473 2.32795 0.250488 1.80004 0.411292 1.31618C0.572097 0.832325 0.91852 0.432162 1.37436 0.203716Z" fill="#C4C4C4"/>
</svg>
