<svg width="38" height="30" viewBox="0 0 38 30" fill="none" xmlns="http://www.w3.org/2000/svg">
<path d="M12.1373 30C26.0704 30 33.6923 18.4552 33.6923 8.46115C33.6923 8.13809 33.6923 7.81041 33.6784 7.48735C35.1623 6.41315 36.443 5.08322 37.4605 3.55987C36.0744 4.17103 34.6055 4.57383 33.1015 4.75519C34.6858 3.80825 35.8723 2.31833 36.4406 0.562339C34.9522 1.44412 33.3231 2.06312 31.6247 2.39224C30.4829 1.17621 28.9719 0.370621 27.3259 0.100265C25.6799 -0.17009 23.9906 0.109874 22.5198 0.896792C21.049 1.68371 19.8787 2.93366 19.1902 4.45304C18.5018 5.97242 18.3335 7.67642 18.7115 9.3011C15.6996 9.15008 12.753 8.36762 10.0629 7.00448C7.37276 5.64134 4.99923 3.72796 3.09622 1.38845C2.13013 3.05701 1.8353 5.03072 2.2716 6.90877C2.70789 8.78682 3.84261 10.4284 5.44532 11.5002C4.24432 11.4594 3.06973 11.1369 2.01627 10.5587V10.6626C2.01834 12.4105 2.62387 14.1041 3.73051 15.4571C4.83714 16.8102 6.377 17.7396 8.0898 18.0883C7.43967 18.2674 6.76809 18.3567 6.09375 18.3537C5.61835 18.3551 5.14391 18.3111 4.6769 18.2222C5.161 19.7268 6.10361 21.0424 7.37271 21.9846C8.64181 22.9268 10.1738 23.4485 11.7542 23.4765C9.06949 25.5852 5.75315 26.7288 2.33933 26.7233C1.7378 26.7258 1.13668 26.6911 0.539429 26.6194C4.00428 28.8284 8.02818 30.0013 12.1373 30Z" fill="#333333"/>
</svg>
